<svg width="42" height="30" viewBox="0 0 42 30" fill="none" xmlns="http://www.w3.org/2000/svg">
<path fill-rule="evenodd" clip-rule="evenodd" d="M3.87079 28.1791C5.97288 29.5833 8.89579 29.5833 14.75 29.5833H27.25C33.102 29.5833 36.027 29.5833 38.1291 28.1791C39.0393 27.5709 39.8209 26.7893 40.4291 25.8791C41.8333 23.777 41.8333 20.8541 41.8333 15C41.8333 9.14788 41.8333 6.22288 40.4291 4.12079C39.8209 3.21056 39.0394 2.42902 38.1291 1.82079C36.027 0.416625 33.1041 0.416626 27.25 0.416626H14.75C8.89788 0.416626 5.97288 0.416625 3.87079 1.82079C2.96049 2.42894 2.17894 3.21049 1.57079 4.12079C0.166626 6.22288 0.166626 9.14579 0.166626 15C0.166626 20.852 0.166626 23.777 1.57079 25.8791C2.17894 26.7894 2.96049 27.571 3.87079 28.1791ZM21 22.8125C18.928 22.8125 16.9408 21.9894 15.4757 20.5242C14.0106 19.0591 13.1875 17.072 13.1875 15C13.1875 12.928 14.0106 10.9408 15.4757 9.47569C16.9408 8.01056 18.928 7.18746 21 7.18746C23.072 7.18746 25.0591 8.01056 26.5242 9.47569C27.9894 10.9408 28.8125 12.928 28.8125 15C28.8125 17.072 27.9894 19.0591 26.5242 20.5242C25.0591 21.9894 23.072 22.8125 21 22.8125ZM7.45829 22.8125C7.04389 22.8125 6.64646 22.6478 6.35344 22.3548C6.06041 22.0618 5.89579 21.6644 5.89579 21.25V8.74996C5.89579 8.33556 6.06041 7.93813 6.35344 7.64511C6.64646 7.35208 7.04389 7.18746 7.45829 7.18746C7.87269 7.18746 8.27012 7.35208 8.56315 7.64511C8.85617 7.93813 9.02079 8.33556 9.02079 8.74996V21.25C9.02079 21.6644 8.85617 22.0618 8.56315 22.3548C8.27012 22.6478 7.87269 22.8125 7.45829 22.8125ZM32.9791 21.25C32.9791 21.6644 33.1437 22.0618 33.4368 22.3548C33.7298 22.6478 34.1272 22.8125 34.5416 22.8125C34.956 22.8125 35.3535 22.6478 35.6465 22.3548C35.9395 22.0618 36.1041 21.6644 36.1041 21.25V8.74996C36.1041 8.33556 35.9395 7.93813 35.6465 7.64511C35.3535 7.35208 34.956 7.18746 34.5416 7.18746C34.1272 7.18746 33.7298 7.35208 33.4368 7.64511C33.1437 7.93813 32.9791 8.33556 32.9791 8.74996V21.25Z" fill="white"/>
</svg>
